<svg height="512" width="512" xmlns="http://www.w3.org/2000/svg"><circle cx="250" cy="196" r="10"/><path d="M364.452 132.866c-16.703-8.493-63.698-2.694-72.95-1.446a10.002 10.002 0 00-7.458 14.668c4.441 8.209 27.44 49.593 44.143 58.086 19.659 9.995 43.789 2.141 53.787-17.521 9.997-19.663 2.137-43.791-17.522-53.787zm-.306 44.721c-4.998 9.83-17.062 13.757-26.894 8.758-5.9-3-17.823-19.53-28.178-36.761 20.029-1.786 40.414-1.891 46.313 1.109 9.829 4.998 13.758 17.063 8.759 26.894z"/><circle cx="250" cy="466" r="10"/><path d="M10 476h195c5.523 0 10-4.477 10-10s-4.477-10-10-10H20V310.782c30.762 61.431 93.846 103.971 166.814 105.178 1.061.025 18.186.04 18.186.04 16.528 0 32.48-6.009 45.083-16.753C262.872 409.747 280.024 416 297 416c17.013 0 34.203-6.28 47-16.821C356.797 409.72 373.987 416 391 416s34.203-6.28 47-16.821C450.797 409.72 467.987 416 485 416c2.163 0 4.56-.13 7-.359V456H295c-5.523 0-10 4.477-10 10s4.477 10 10 10h207c5.523 0 10-4.477 10-10V283.88a10.001 10.001 0 00-12.51-9.68c-4.021 1.043-10.115 1.8-14.49 1.8-14.804 0-30.297-6.78-39.472-17.272a9.998 9.998 0 00-15.056 0C421.297 269.22 405.804 276 391 276s-30.297-6.78-39.472-17.272a9.998 9.998 0 00-15.056 0C327.297 269.22 311.804 276 297 276s-30.297-6.78-39.472-17.272a10 10 0 00-15.056.001c-15.222 17.413-44.327 23.274-69.207 13.931C152.125 264.723 140 247.716 140 226c0-27.337 21.393-49.292 48.647-49.982C223.455 175.344 245 149.232 245 121c0-2.697-.194-5.371-.579-8.008 19.735-4.962 37.591-15.891 51.109-31.455 3.983-4.586 2.985-11.635-2.099-14.941C262.648 46.58 226.882 36 190 36 85.234 36 0 121.234 0 226v240c0 5.523 4.477 10 10 10zm482-80.467c-2.45.292-4.92.467-7 .467-14.804 0-30.297-6.78-39.472-17.272a9.998 9.998 0 00-15.056 0C421.297 389.22 405.804 396 391 396s-30.297-6.78-39.472-17.272a9.998 9.998 0 00-15.056 0C327.297 389.22 311.804 396 297 396s-30.297-6.78-39.472-17.272a9.998 9.998 0 00-15.056 0c-9.598 10.977-23.256 17.307-37.472 17.307 0 0-16.837-.02-17.755-.035-37.06-.906-69.793-20.081-89.066-49.25a64.239 64.239 0 009.34 3.347c18.883 5.143 37.907 1.088 52.438-10.817C172.552 350.003 188.489 356 205 356c16.528 0 32.48-6.009 45.083-16.753C262.872 349.747 280.024 356 297 356c17.013 0 34.202-6.28 47-16.821C356.797 349.72 373.987 356 391 356s34.202-6.28 47-16.821C450.797 349.72 467.987 356 485 356c2.163 0 4.56-.13 7-.359zm-325.766-104.15c15.174 5.697 32.434 7.126 48.6 4.023 13.603-2.611 25.592-8.148 35.208-16.193C262.834 289.733 280.006 296 297 296c17.013 0 34.203-6.28 47-16.821C356.797 289.72 373.987 296 391 296s34.203-6.28 47-16.821C450.797 289.72 467.987 296 485 296c2.164 0 4.559-.126 7-.354v39.888c-2.45.292-4.92.467-7 .467-14.804 0-30.297-6.78-39.472-17.272a10.002 10.002 0 00-15.056 0C421.297 329.22 405.804 336 391 336s-30.297-6.78-39.472-17.272a10.002 10.002 0 00-15.056 0C327.297 329.22 311.804 336 297 336s-30.297-6.78-39.472-17.272a10.002 10.002 0 00-15.056 0C232.874 329.705 219.216 336 205 336s-27.874-6.295-37.472-17.272a10.002 10.002 0 00-7.496-3.417c-3.997-.047-6.244 1.989-8.37 4.323-10.054 11.089-24.226 15.159-38.887 11.167C94.648 325.863 80 310.634 80 286c0-36.859 18.451-69.714 46.592-89.713C122.28 205.476 120 215.573 120 226c0 30.071 17.284 54.514 46.234 65.383zM190 56c28.806 0 56.848 7.21 81.821 20.948-11.604 9.876-25.814 16.278-41.019 18.332a10 10 0 00-8.022 13.429A34.796 34.796 0 01225 121c0 19.299-15.701 35-35 35-.555 0-1.201.011-1.803.023C99.461 174.933 60 216.245 60 286c0 23.986 6.598 48.248 20.272 69.732C43.432 324.524 20 277.951 20 226c0-93.738 76.262-170 170-170z"/></svg>