<svg height="512" width="512" xmlns="http://www.w3.org/2000/svg"><path d="M461.239 326.681c-4.247-27.889-18.205-52.745-39.19-70.681 20.985-17.935 34.942-42.792 39.19-70.681 2.245-14.742 7.774-29.111 15.99-41.555 3.13-4.741 3.313-10.844.473-15.765s-8.224-7.821-13.889-7.473c-14.886.889-30.095-1.503-43.982-6.93-26.278-10.266-54.782-10.606-80.806-1.4-5.039-27.14-19.587-51.656-41.616-69.28-11.644-9.315-21.323-21.288-27.992-34.625a15.002 15.002 0 00-26.834.001c-6.668 13.337-16.348 25.311-27.992 34.625-22.029 17.624-36.577 42.14-41.616 69.28-26.024-9.206-54.529-8.865-80.807 1.401-13.887 5.427-29.096 7.819-43.982 6.93a14.972 14.972 0 00-13.889 7.473 14.999 14.999 0 00.473 15.765c8.216 12.443 13.745 26.812 15.99 41.555 4.248 27.889 18.205 52.745 39.19 70.681-20.985 17.935-34.943 42.792-39.19 70.681-2.245 14.742-7.774 29.111-15.99 41.555a14.999 14.999 0 0013.416 23.238c14.885-.89 30.095 1.504 43.982 6.93 13.735 5.366 28.075 8.023 42.356 8.022 13.041 0 26.027-2.232 38.45-6.626 5.039 27.142 19.587 51.66 41.618 69.284 11.644 9.314 21.323 21.288 27.991 34.625a15.004 15.004 0 0026.834-.003c6.667-13.336 16.347-25.31 27.992-34.625 22.03-17.625 36.578-42.142 41.617-69.283a115.203 115.203 0 0038.449 6.625c14.279 0 28.624-2.658 42.357-8.023 13.888-5.427 29.097-7.819 43.982-6.929a15.002 15.002 0 0013.416-23.238c-8.216-12.443-13.746-26.812-15.991-41.554z" fill="#ff9d21"/><path d="M461.239 326.681c-4.247-27.889-18.205-52.745-39.19-70.681 20.985-17.935 34.942-42.792 39.19-70.681 2.245-14.742 7.774-29.111 15.99-41.555 3.13-4.741 3.313-10.844.473-15.765s-8.224-7.821-13.889-7.473c-14.886.889-30.095-1.503-43.982-6.93-26.278-10.266-54.782-10.606-80.806-1.4-5.039-27.14-19.587-51.656-41.616-69.28-11.644-9.315-21.323-21.288-27.992-34.625A15.002 15.002 0 00256 0v512a15 15 0 0013.417-8.292c6.667-13.336 16.347-25.31 27.992-34.625 22.03-17.625 36.578-42.142 41.617-69.283a115.203 115.203 0 0038.449 6.625c14.279 0 28.624-2.658 42.357-8.023 13.888-5.427 29.097-7.819 43.982-6.929a15.002 15.002 0 0013.416-23.238c-8.216-12.443-13.746-26.812-15.991-41.554z" fill="#ff7c48"/><path d="M256 411c-85.467 0-155-69.532-155-155s69.533-155 155-155 155 69.532 155 155-69.533 155-155 155z" fill="#ff7c48"/><path d="M256 101v310c85.467 0 155-69.532 155-155s-69.533-155-155-155z" fill="#ff4a4a"/><path d="M256 351c-52.383 0-95-42.617-95-95s42.617-95 95-95 95 42.617 95 95-42.617 95-95 95z" fill="#e2dff4"/><path d="M256 161v190c52.383 0 95-42.617 95-95s-42.617-95-95-95z" fill="#bebcdd"/><path d="M256 321c-35.841 0-65-29.159-65-65s29.159-65 65-65 65 29.159 65 65-29.159 65-65 65z" fill="#ff9d21"/><path d="M256 191v130c35.841 0 65-29.159 65-65s-29.159-65-65-65z" fill="#ff7c48"/><path d="M256 291c-35.841 0-65-29.159-65-65s29.159-65 65-65 65 29.159 65 65-29.159 65-65 65z" fill="#f9f9f9"/><path d="M256 161v130c35.841 0 65-29.159 65-65s-29.159-65-65-65z" fill="#e2dff4"/><path d="M256 261c-19.299 0-35-15.701-35-35s15.701-35 35-35 35 15.701 35 35-15.701 35-35 35z" fill="#ff9d21"/><path d="M256 191v70c19.299 0 35-15.701 35-35s-15.701-35-35-35z" fill="#ff7c48"/></svg>