<svg height="512" width="512" xmlns="http://www.w3.org/2000/svg"><path d="M232 176h48v40h-48z" fill="#fad7be"/><path d="M232 185.526a47.723 47.723 0 0048 0V176h-48z" fill="#eeccb6"/><rect fill="#fad7be" height="112" rx="48" width="96" x="208" y="72"/><path d="M256 160a8 8 0 01-8-8v-16h-8a8 8 0 010-16h16a8 8 0 018 8v24a8 8 0 01-8 8z" fill="#e0c0ab"/><path d="M256 72a47.832 47.832 0 00-33.737 13.873L224 88a53.334 53.334 0 0064 0s.655-.863 1.653-2.2A47.828 47.828 0 00256 72z" fill="#a98e72"/><path d="M448 304.18a8 8 0 01-7.684-10.242 193.31 193.31 0 001.125-103.86 8 8 0 0115.453-4.156 209.354 209.354 0 01-1.218 112.5A8.005 8.005 0 01448 304.18zM437.562 164a8 8 0 01-7.261-4.633 193 193 0 00-112.86-101.328 8 8 0 015.118-15.156 209.056 209.056 0 01122.257 109.75 8 8 0 01-3.894 10.625 7.9 7.9 0 01-3.36.742zM288.012 50.547a7.865 7.865 0 01-1.285-.1 195.5 195.5 0 00-53.782-1.078 8 8 0 01-1.89-15.89 211.445 211.445 0 0158.218 1.171 8 8 0 01-1.261 15.9zM144.008 82.281a8 8 0 01-4.492-14.625 206.8 206.8 0 0149.925-24.773 8 8 0 115.118 15.156 191.3 191.3 0 00-46.075 22.867 7.953 7.953 0 01-4.476 1.375zM59.238 212a7.522 7.522 0 01-1.437-.133 8 8 0 01-6.442-9.3A208 208 0 0192.8 111.039a8 8 0 1112.547 9.922A192.009 192.009 0 0067.1 205.43a8 8 0 01-7.862 6.57zm5.914 96a8.009 8.009 0 01-7.629-5.6A207.923 207.923 0 0148 240q0-2.087.039-4.164a8 8 0 018-7.836h.161a8.007 8.007 0 017.836 8.164L64 240a191.957 191.957 0 008.789 57.6 8 8 0 01-7.637 10.4zM400 296.789a8 8 0 01-7.578-10.57A143.738 143.738 0 00400 240a8 8 0 0116 0 159.725 159.725 0 01-8.422 51.359 8.006 8.006 0 01-7.578 5.43zM403.7 212a8 8 0 01-7.766-6.109 142.51 142.51 0 00-26.25-54.282 8 8 0 0112.625-9.828 158.343 158.343 0 0129.172 60.328 8 8 0 01-5.886 9.664 7.865 7.865 0 01-1.895.227zM352 130.148a7.968 7.968 0 01-5.051-1.8 144.923 144.923 0 00-22.749-15.207 8 8 0 117.6-14.079 160.761 160.761 0 0125.258 16.883 8 8 0 01-5.059 14.2zM157.777 132a8 8 0 01-5.175-14.1 160.464 160.464 0 0127.6-18.836 8 8 0 117.594 14.079 144.619 144.619 0 00-24.851 16.957 7.967 7.967 0 01-5.168 1.9zM108.3 212a7.865 7.865 0 01-1.895-.227 7.994 7.994 0 01-5.886-9.656 158.958 158.958 0 0112.355-33.7 8 8 0 0114.305 7.172 143.15 143.15 0 00-11.114 30.3A8 8 0 01108.3 212zm2.161 80a8 8 0 01-7.656-5.688A160.188 160.188 0 0196 240a8 8 0 0116 0 144.124 144.124 0 006.125 41.688A8.008 8.008 0 01110.461 292z" fill="#fbeebd"/><path d="M320 208l48 96 59.539 33.077a19.527 19.527 0 019.665 20.9 19.529 19.529 0 01-28.5 13.315L344 336l-24-48-8-8zm-128-.163l-48 96-59.539 33.077a19.529 19.529 0 00-9.665 20.9 19.529 19.529 0 0028.5 13.314L168 335.837l24-48 8-1.837z" fill="#fad7be"/><path d="M304 392h-96v-64l-16-40v-80h128v80l-16 40z" fill="#fdb62f"/><path d="M368.022 464H143.978A39.978 39.978 0 01104 424.022v-.037a39.978 39.978 0 0139.985-39.978l224.043.036A39.979 39.979 0 01408 424.022 39.978 39.978 0 01368.022 464z" fill="#f5b02e"/><path d="M240.008 432a9.59 9.59 0 01-.805-.039l-80-8a8 8 0 111.594-15.922l80 8a8 8 0 01-.789 15.961z" fill="#ec9e15"/><path d="M152 464v-17.389a16 16 0 0114.551-15.934l49.449-4.5V464z" fill="#fad7be"/><path d="M327.277 408.031l-112 10.18A8 8 0 00208 426.18V464h16v-30.516l104.723-9.515a8 8 0 10-1.446-15.938z" fill="#ec9e15"/></svg>