<svg version="1.0" xmlns="http://www.w3.org/2000/svg" width="157.333" height="8" viewBox="0 0 118 6"><path d="M3.5 2.5C-.9 5.2.1 6 4.7 3.4c2.7-1.6 3.1-1.6 6.8.3l3.9 2.1 4.2-2.1 4.2-2 3.6 2.2L31 6.1l4-2.2 4-2.3 3.7 2.1 3.6 2.1 4.2-2 4.1-2 3.9 2 3.9 2 4.2-2.1 4.2-2 3.6 2.2L78 6.2l3.6-2.3 3.6-2.2 4.2 2 4.2 2.1 3.9-2.1 4-2 3.8 2.2 3.8 2.2 4.5-2.6c5.7-3.4 5.8-4.4 0-1.2l-4.4 2.5-3.9-2.4-3.9-2.3-3.9 2.3-4 2.2-3.8-2.3L86 0l-4 2.2-4 2.3-3.9-2.1L70.2.3l-4 2.2-4 2.3-3.7-2.5-3.6-2.4-4.2 2.4-4.2 2.5L43 2.5 39.5.3l-4.3 2.1-4.3 2.1-3.8-2.2L23.3.1l-3.9 2.3-4 2.3-3.5-2.3C10.1 1.1 8.3.1 8 .1c-.3 0-2.3 1.1-4.5 2.4z" fill="#c45f1c"/></svg>